# xmcd
#
# Track frame offsets:
#	150
#	12340
#	29552
#	55661
#	69195
#	88577
#	108768
#	124809
#	140914
#	146947
#	166422
#	182191
#	209739
#
# Disc length: 4273 seconds
#
# Revision: 1
# Processed by: cddbd v1.5.2PL0 Copyright (c) Steve Scherf et al.
# Submitted via: audiograbber 1.83.01
#
DISCID=c310af0d
DTITLE=C. gibbs  - medicine bag
DYEAR=2010
DGENRE=Alternative Rock
TTITLE0=less the scare
TTITLE1=medicine bag
TTITLE2=cobblestone
TTITLE3=can't get you off of my mind
TTITLE4=halitosis kisses
TTITLE5=cheater sunday
TTITLE6=satellite
TTITLE7=big brown sue
TTITLE8=johnny kind and true
TTITLE9=check my head
TTITLE10=scarity model #2
TTITLE11=highway song
TTITLE12=Daten-CD
EXTD=
EXTT0=
EXTT1=
EXTT2=
EXTT3=
EXTT4=
EXTT5=
EXTT6=
EXTT7=
EXTT8=
EXTT9=
EXTT10=
EXTT11=
EXTT12=
PLAYORDER=
